<svg width="108" height="11" viewBox="0 0 108 11" fill="none" xmlns="http://www.w3.org/2000/svg">
<path d="M108 5H93.3283C92.1992 5 91.1162 5.44763 90.3166 6.24479L88.7229 7.83355C86.6225 9.92743 83.0389 8.43979 83.0389 5.47401V5.47401C83.0389 2.38469 79.1987 0.95894 77.1826 3.29978L75.4377 5.32587C74.4093 6.51996 72.6012 6.63772 71.4266 5.58711V5.58711C70.4022 4.67082 68.8659 4.62791 67.7919 5.4856L66.102 6.83522C64.4518 8.15306 62.1828 8.38232 60.3024 7.42122L58.4827 6.49116C56.6045 5.53116 54.4374 5.30023 52.399 5.84285L50.2968 6.40247C47.6198 7.1151 44.7843 6.94514 42.2116 5.91785V5.91785C40.6932 5.3115 39.073 5 37.438 5H1.07288e-06" stroke="white" stroke-width="4"/>
</svg>
