<svg width="108" height="11" viewBox="0 0 108 11" fill="none" xmlns="http://www.w3.org/2000/svg">
<path d="M0 5H14.6717C15.8008 5 16.8838 5.44763 17.6834 6.24479L19.2771 7.83355C21.3775 9.92743 24.9611 8.43979 24.9611 5.47401V5.47401C24.9611 2.38469 28.8013 0.95894 30.8174 3.29978L32.5623 5.32587C33.5907 6.51996 35.3988 6.63772 36.5734 5.58711V5.58711C37.5978 4.67082 39.1341 4.62791 40.2081 5.4856L41.898 6.83522C43.5482 8.15306 45.8172 8.38232 47.6976 7.42122L49.5173 6.49116C51.3955 5.53116 53.5626 5.30023 55.601 5.84285L57.7032 6.40247C60.3802 7.1151 63.2157 6.94514 65.7884 5.91785V5.91785C67.3068 5.3115 68.927 5 70.562 5H108" stroke="white" stroke-width="4"/>
</svg>
