<svg width="108" height="11" viewBox="0 0 108 11" fill="none" xmlns="http://www.w3.org/2000/svg">
<path d="M108 6H93.3283C92.1992 6 91.1162 5.55237 90.3166 4.75521L88.7229 3.16645C86.6225 1.07257 83.0389 2.56021 83.0389 5.52599V5.52599C83.0389 8.61531 79.1987 10.0411 77.1826 7.70022L75.4377 5.67413C74.4093 4.48004 72.6012 4.36228 71.4266 5.41289V5.41289C70.4022 6.32918 68.8659 6.37209 67.7919 5.5144L66.102 4.16478C64.4518 2.84694 62.1828 2.61768 60.3024 3.57878L58.4827 4.50884C56.6045 5.46884 54.4374 5.69977 52.399 5.15715L50.2968 4.59753C47.6198 3.8849 44.7843 4.05486 42.2116 5.08215V5.08215C40.6932 5.6885 39.073 6 37.438 6H1.07288e-06" stroke="white" stroke-width="4"/>
</svg>
