<svg width="64" height="64" viewBox="0 0 64 64" fill="none" xmlns="http://www.w3.org/2000/svg">
<path d="M42.1667 21.3333C42.1667 26.9482 37.6149 31.5 32 31.5C26.3851 31.5 21.8333 26.9482 21.8333 21.3333C21.8333 15.7184 26.3851 11.1667 32 11.1667C37.6149 11.1667 42.1667 15.7184 42.1667 21.3333Z" fill="white" stroke="white" stroke-linecap="round"/>
<path d="M15.2919 39.2492C16.43 37.1019 18.7481 36 21.1783 36H42.8217C45.2519 36 47.57 37.1019 48.7081 39.2492C50.1193 41.9118 51.7781 46.0416 51.9796 50.9992C52.0021 51.5511 51.5523 52 51 52H13C12.4477 52 11.9979 51.5511 12.0204 50.9992C12.2219 46.0416 13.8807 41.9118 15.2919 39.2492Z" fill="white" stroke="white" stroke-linecap="round"/>
</svg>
